<svg xmlns="http://www.w3.org/2000/svg" width="480pt" height="290pt" viewBox="0 0 480 290" version="1.1" xmlns:xlink="http://www.w3.org/1999/xlink">
  <g id="surface2" transform="matrix(1,0,0,1,-117,49)" data-tpl_matrix="1,0,0,1,-0.5,-0.5">
    <path style="stroke:none;fill-rule:evenodd;fill:rgb(0.000000%,28.235294%,38.823529%);fill-opacity:1" d="M 240.449219 62.851562 L 211 79.851562 L 211 113.851562 L 240.449219 130.898438 L 269.898438 113.851562 L 269.898438 79.851562 L 240.449219 62.851562 "/>
    <path style="stroke:none;fill-rule:evenodd;fill:rgb(67.058824%,88.235294%,98.039216%);fill-opacity:1" d="M 224.25 111.699219 C 224.949219 110.964844 225.433594 110.101562 225.699219 109.101562 C 226.035156 107.699219 225.949219 106.367188 225.449219 105.101562 L 237.300781 98.148438 C 238.199219 99.316406 239.417969 100.117188 240.949219 100.550781 C 242.183594 100.851562 243.367188 100.851562 244.5 100.550781 C 245.632812 100.25 246.632812 99.699219 247.5 98.898438 L 254.550781 104.601562 C 254.316406 104.964844 254.148438 105.351562 254.050781 105.75 C 253.75 106.984375 253.851562 108.132812 254.351562 109.199219 C 254.816406 110.300781 255.582031 111.132812 256.648438 111.699219 L 240.449219 121.101562 L 224.25 111.699219 M 234.75 72.601562 C 234.617188 73.867188 234.882812 75 235.550781 76 C 236.25 77 237.214844 77.683594 238.449219 78.050781 C 238.816406 78.148438 239.183594 78.199219 239.550781 78.199219 L 240.851562 87.25 C 239.683594 87.582031 238.667969 88.167969 237.800781 89 C 236.964844 89.832031 236.367188 90.867188 236 92.101562 C 235.632812 93.667969 235.75 95.148438 236.351562 96.550781 L 224.5 103.550781 C 223.667969 102.515625 222.582031 101.816406 221.25 101.449219 C 220.148438 101.148438 219.082031 101.148438 218.050781 101.449219 L 218.050781 82.25 L 234.75 72.601562 M 262.851562 103.5 C 262.214844 102.832031 261.417969 102.367188 260.449219 102.101562 C 259.582031 101.867188 258.734375 101.851562 257.898438 102.050781 C 257.066406 102.25 256.332031 102.617188 255.699219 103.148438 L 248.648438 97.5 C 248.984375 96.933594 249.25 96.316406 249.449219 95.648438 C 249.816406 94.148438 249.699219 92.699219 249.101562 91.300781 L 250.800781 90.351562 C 251.566406 91.285156 252.582031 91.933594 253.851562 92.300781 C 255.417969 92.667969 256.851562 92.464844 258.148438 91.699219 C 259.449219 90.933594 260.332031 89.765625 260.800781 88.199219 C 261.167969 86.667969 260.964844 85.25 260.199219 83.949219 C 259.433594 82.617188 258.285156 81.734375 256.75 81.300781 C 255.183594 80.933594 253.75 81.117188 252.449219 81.851562 C 251.117188 82.617188 250.234375 83.765625 249.800781 85.300781 C 249.5 86.535156 249.550781 87.683594 249.949219 88.75 L 248.199219 89.75 C 247.265625 88.515625 246.035156 87.667969 244.5 87.199219 C 243.867188 87.066406 243.25 87 242.648438 87 L 241.351562 77.949219 C 242.117188 77.683594 242.785156 77.25 243.351562 76.648438 C 243.882812 76.050781 244.265625 75.332031 244.5 74.5 C 244.765625 73.464844 244.734375 72.5 244.398438 71.601562 L 262.851562 82.25 L 262.851562 103.5 "/>
  </g>
  <g id="surface4">
    <text style="fill:rgb(109,207,246)" font-family="Futura Md BT" font-size="50" transform="matrix(1,0,0,1,162,169)" xml:space="preserve"><![CDATA[Kunteksto]]></text>
  </g>
</svg>